<svg width="61.86mm" height="82.998" viewBox="0 0 61.86 21.96" xmlns="http://www.w3.org/2000/svg"><g clip-rule="evenodd" fill-rule="evenodd"><path d="M58.472 8.599c0-.662.53-1.217 1.164-1.217.662 0 1.164.555 1.164 1.217s-.502 1.217-1.164 1.217c-.635.026-1.164-.53-1.164-1.217zm1.164.952c.503 0 .873-.423.873-.926s-.397-.926-.873-.926c-.503 0-.873.424-.873.926s.397.926.873.926zm-.159-.397h-.238V8.07h.45c.08 0 .185 0 .265.053s.132.158.132.264c0 .132-.08.238-.185.265l.185.476h-.265l-.158-.423h-.186zm0-.608h.133c.053 0 .106 0 .132-.027s.053-.079.053-.132c0-.026-.027-.08-.053-.106s-.106-.026-.132-.026h-.133c.027.026 0 .29 0 .29zM41.83.476l-.318 2.09c-.687-.37-1.19-.502-1.746-.502-1.455 0-2.46 1.481-2.46 3.572 0 1.455.688 2.328 1.825 2.328.476 0 1.006-.159 1.667-.503l-.344 2.196c-.714.212-1.19.291-1.72.291-2.09 0-3.413-1.587-3.413-4.127 0-3.413 1.8-5.821 4.392-5.821.344 0 .635.026.873.106l.82.211c.186.08.239.08.424.16zm-6.482 1.429c-.053-.027-.133-.027-.185-.027-.635 0-1.006.344-1.614 1.27l.185-1.19H31.96l-1.19 7.779h1.957c.715-4.763.873-5.583 1.826-5.583h.132c.185-.926.397-1.614.741-2.25zM23.706 9.63c-.529.185-.952.264-1.402.264-.979 0-1.535-.608-1.535-1.72 0-.211.027-.45.053-.714l.133-.767.079-.609.847-5.318h1.931l-.238 1.138h1.005l-.29 1.878h-.953l-.53 3.308c-.026.132-.026.238-.026.317 0 .397.212.582.662.582.238 0 .396-.026.529-.08zm-7.7-5.213c0 .98.45 1.667 1.483 2.17.767.397.926.503.926.873 0 .476-.344.714-1.112.714-.582 0-1.11-.079-1.746-.317l-.264 1.8.079.026.344.079c.132.026.29.053.503.08.45.026.82.079 1.084.079 2.038 0 2.99-.82 2.99-2.593 0-1.058-.397-1.693-1.376-2.17-.82-.397-.9-.476-.9-.846 0-.424.318-.635.953-.635.397 0 .9.053 1.402.132l.292-1.8a9.242 9.242 0 0 0-1.72-.158c-2.196-.053-2.937 1.111-2.937 2.566zm41.355 5.319h-1.852l.08-.768c-.53.609-1.086.873-1.8.873-1.429 0-2.355-1.296-2.355-3.228 0-2.592 1.455-4.788 3.175-4.788.767 0 1.323.344 1.879 1.058L56.91.159h1.931zM54.477 7.91c.926 0 1.56-1.085 1.56-2.62 0-.978-.37-1.534-1.031-1.534-.873 0-1.508 1.085-1.508 2.62-.027 1.005.317 1.534.979 1.534zM29.87 9.578a6.52 6.52 0 0 1-2.01.317c-2.17 0-3.308-1.19-3.308-3.492 0-2.672 1.455-4.63 3.413-4.63 1.614 0 2.62 1.11 2.62 2.83 0 .556-.08 1.138-.239 1.932h-3.89c-.026.132-.026.185-.026.238 0 .926.582 1.376 1.72 1.376.688 0 1.323-.159 2.037-.503-.026 0-.317 1.932-.317 1.932zM28.786 4.92c.027-.159.027-.29.027-.397 0-.635-.344-1.005-.926-1.005-.609 0-1.059.503-1.244 1.402zM8.176 9.737H6.243L7.355 2.38 4.842 9.737H3.519L3.36 2.434 2.17 9.737H.343L1.904.159H4.71l.08 5.926L6.667.16H9.71zm5.026-3.466c-.211-.027-.29-.027-.45-.027-1.11 0-1.666.397-1.666 1.19 0 .477.29.794.714.794.794-.026 1.376-.82 1.402-1.957zm1.43 3.466h-1.615l.027-.82c-.503.66-1.138.925-2.038.925-1.058 0-1.772-.873-1.772-2.116 0-1.905 1.27-2.99 3.413-2.99.238 0 .502.026.793.053.053-.265.08-.37.08-.503 0-.503-.344-.714-1.244-.714-.555 0-1.19.08-1.614.238l-.29.08-.186.052.265-1.746c.979-.291 1.614-.423 2.328-.423 1.667 0 2.566.793 2.566 2.275 0 .397-.026.661-.158 1.561l-.397 2.778-.08.503-.052.397-.027.29c.027-.052 0 .16 0 .16zM45.19 6.27c-.185-.027-.291-.027-.45-.027-1.11 0-1.667.397-1.667 1.19 0 .477.291.794.715.794.794-.026 1.376-.82 1.402-1.957zm1.402 3.466h-1.614l.027-.82c-.503.66-1.138.925-2.037.925-1.059 0-1.773-.873-1.773-2.116 0-1.905 1.27-2.99 3.413-2.99.212 0 .503.026.794.053.053-.265.08-.37.08-.503 0-.503-.345-.714-1.244-.714-.556 0-1.191.08-1.614.238l-.291.08-.186.052.265-1.746c.979-.291 1.614-.423 2.328-.423 1.667 0 2.567.793 2.567 2.275 0 .397-.027.661-.159 1.561l-.397 2.752-.053.502-.053.397-.026.265zm5.45-7.832c-.052-.027-.132-.027-.184-.027-.635 0-1.006.344-1.614 1.27l.185-1.19h-1.773l-1.19 7.779h1.957c.715-4.763.873-5.583 1.826-5.583h.132c.133-.794.397-1.535.741-2.25z" fill="#e52727"/><path d="M43.867 17.277c0 1.773-.555 2.805-1.402 2.805-.635.026-1.005-.688-1.005-1.72 0-1.244.555-2.646 1.455-2.646.714 0 .952.767.952 1.561zm1.932.027c0-1.958-.98-3.493-2.778-3.493-2.09 0-3.466 1.852-3.466 4.577 0 1.958.82 3.572 2.778 3.572 1.984 0 3.466-1.402 3.466-4.656zm-5.636-4.842-.291 2.09c-.661-.37-1.111-.503-1.614-.503-1.35 0-2.302 1.482-2.302 3.572 0 1.455.635 2.328 1.694 2.328.45 0 .952-.158 1.56-.502l-.317 2.196c-.661.211-1.111.29-1.614.29-1.958 0-3.201-1.587-3.201-4.127 0-3.413 1.693-5.82 4.1-5.82.318 0 .583.026.82.105l.742.212c.211.053.264.08.423.159zm-12.038 1.402c-.053-.026-.133-.026-.186-.026-.608 0-.926.343-1.508 1.27l.186-1.191h-1.64l-1.112 7.779h1.826c.661-4.763.82-5.583 1.693-5.583.053 0 .053 0 .132.026a8.7 8.7 0 0 1 .688-2.249zm23.759 7.779h-1.72l.08-.768c-.503.609-1.032.873-1.694.873-1.323 0-2.196-1.296-2.196-3.227 0-2.593 1.35-4.79 2.964-4.79.714 0 1.243.345 1.746 1.085l.397-2.725h1.799zm-2.699-1.826c.873 0 1.455-1.085 1.455-2.62 0-.978-.344-1.507-.979-1.507-.82 0-1.402 1.084-1.402 2.619 0 .979.318 1.508.926 1.508zm-38.126 1.8a5.717 5.717 0 0 1-1.878.317c-2.038 0-3.096-1.191-3.096-3.493 0-2.672 1.35-4.63 3.175-4.63 1.508 0 2.46 1.085 2.46 2.831 0 .556-.079 1.138-.237 1.931H7.884c-.026.133-.026.186-.026.239 0 .9.555 1.349 1.614 1.349.661 0 1.243-.159 1.878-.503zm-1.032-4.631c0-.159.027-.291.027-.397 0-.635-.318-1.005-.873-1.005-.582 0-.98.502-1.164 1.402zm22.675 4.63a5.717 5.717 0 0 1-1.879.318c-2.037 0-3.095-1.191-3.095-3.493 0-2.672 1.35-4.63 3.175-4.63 1.508 0 2.46 1.085 2.46 2.831 0 .556-.079 1.138-.238 1.931H29.5c-.026.133-.026.186-.026.239 0 .9.556 1.349 1.614 1.349.661 0 1.244-.159 1.878-.503zm-1.005-4.63c.026-.159.026-.291.026-.397 0-.635-.318-1.005-.873-1.005-.582 0-.98.502-1.164 1.402zm26.405 4.63a5.717 5.717 0 0 1-1.879.318c-2.037 0-3.096-1.191-3.096-3.493 0-2.672 1.35-4.63 3.202-4.63 1.508 0 2.46 1.085 2.46 2.831 0 .556-.079 1.138-.238 1.931h-3.624c-.027.133-.027.186-.027.239 0 .9.556 1.349 1.614 1.349.662 0 1.244-.159 1.879-.503zm-1.032-4.63c0-.159.026-.291.026-.397 0-.635-.317-1.005-.873-1.005-.582 0-.979.502-1.164 1.402zM5.662 14.234a2.617 2.617 0 0 0-1.508-.45c-.741 0-1.323.16-1.323.927 0 1.375 2.672.873 2.672 3.836 0 2.699-1.773 3.413-3.36 3.413-.714 0-1.535-.238-2.143-.503l.45-1.984c.37.344 1.084.556 1.72.556.581 0 1.455-.16 1.455-1.164 0-1.561-2.673-.98-2.673-3.731 0-2.514 1.561-3.254 3.096-3.254.847 0 1.667.132 2.117.45zm10.715 7.382c-.37.185-.873.291-1.614.291-1.587 0-2.566-1.587-2.566-3.519 0-2.54 1.429-4.55 3.519-4.55.45 0 1.164.185 1.72.502l-.397 1.852c-.397-.264-.794-.423-1.217-.423-.98 0-1.667.9-1.667 2.487 0 .926.503 1.667 1.296 1.667.477 0 .82-.106 1.217-.344zm6.826-1.958c-.105.662-.158 1.35-.238 2.011H21.22l.132-1.243h-.026c-.556.846-1.111 1.428-2.117 1.428-1.084 0-1.693-1.164-1.693-2.672 0-.53.026-.82.132-1.614l.503-3.598h1.958l-.53 3.625c-.052.396-.132.767-.132 1.19 0 .45.212.926.741.873.794 0 1.27-.979 1.403-2.116l.555-3.572h1.879zm36.698 1.905h-.291v-1.27h-.424v-.29h1.138v.29h-.423zm1.958 0h-.291v-1.296l-.265 1.296h-.291l-.265-1.296v1.296h-.29v-1.56h.45l.237 1.243h.027l.238-1.244h.423c.027 0 .027 1.561.027 1.561z" fill="#f3ae12"/></g></svg>
