<?xml version="1.0" encoding="UTF-8" standalone="no"?>
<!-- Created with Inkscape (http://www.inkscape.org/) -->
<svg version="1.1" id="svg2" width="602.67792" height="553.60248" viewBox="0 0 602.67792 553.60248" sodipodi:docname="exportpre.svg" inkscape:version="1.1.2 (b8e25be833, 2022-02-05)" xmlns:inkscape="http://www.inkscape.org/namespaces/inkscape" xmlns:sodipodi="http://sodipodi.sourceforge.net/DTD/sodipodi-0.dtd" xmlns="http://www.w3.org/2000/svg" xmlns:svg="http://www.w3.org/2000/svg">
  <defs id="defs6"/>
  <sodipodi:namedview id="namedview4" pagecolor="#505050" bordercolor="#eeeeee" borderopacity="1" inkscape:pageshadow="0" inkscape:pageopacity="0" inkscape:pagecheckerboard="0" showgrid="false" inkscape:zoom="0.95897436" inkscape:cx="12.513369" inkscape:cy="424.41176" inkscape:window-width="2560" inkscape:window-height="1334" inkscape:window-x="-11" inkscape:window-y="-11" inkscape:window-maximized="1" inkscape:current-layer="g8" fit-margin-top="0" fit-margin-left="0" fit-margin-right="0" fit-margin-bottom="0"/>
  <g inkscape:groupmode="layer" inkscape:label="Image" id="g8" transform="translate(-16.544817,-14.353585)">
    <g id="g898" transform="matrix(12.082131,0,0,12.082131,156.44443,14.353585)" style="stroke-width:0.0827669">
      <path fill="#253b80" d="m 7.2659888,29.154 0.523,-3.322 -1.165,-0.027 h -5.563 l 3.866,-24.513 c 0.012,-0.074 0.051,-0.143 0.108,-0.192 0.057,-0.049 0.13,-0.076 0.206,-0.076 h 9.3800002 c 3.114,0 5.263,0.648 6.385,1.927 0.526,0.6 0.861,1.227 1.023,1.917 0.17,0.724 0.173,1.589 0.007,2.644 l -0.012,0.077 v 0.676 l 0.526,0.298 c 0.443,0.235 0.795,0.504 1.065,0.812 0.45,0.513 0.741,1.165 0.864,1.938 0.127,0.795 0.085,1.741 -0.123,2.812 -0.24,1.232 -0.628,2.305 -1.152,3.183 -0.482,0.809 -1.096,1.48 -1.825,2 -0.696,0.494 -1.523,0.869 -2.458,1.109 -0.906,0.236 -1.939,0.355 -3.072,0.355 h -0.73 c -0.522,0 -1.029,0.188 -1.427,0.525 -0.399,0.344 -0.663,0.814 -0.744,1.328 l -0.055,0.299 -0.924,5.855 -0.042,0.215 c -0.011,0.068 -0.03,0.102 -0.058,0.125 -0.025,0.021 -0.061,0.035 -0.096,0.035 z" id="path839" style="stroke-width:0.00685035"/>
      <path fill="#179bd7" d="m 23.047989,7.667 v 0 0 c -0.028,0.179 -0.06,0.362 -0.096,0.55 -1.237,6.351 -5.469,8.545 -10.874,8.545 H 9.3259888 c -0.661,0 -1.218,0.48 -1.321,1.132 v 0 0 l -1.409,8.936 -0.399,2.533 c -0.067,0.428 0.263,0.814 0.695,0.814 h 4.8810002 c 0.578,0 1.069,-0.42 1.16,-0.99 l 0.048,-0.248 0.919,-5.832 0.059,-0.32 c 0.09,-0.572 0.582,-0.992 1.16,-0.992 h 0.73 c 4.729,0 8.431,-1.92 9.513,-7.476 0.452,-2.321 0.218,-4.259 -0.978,-5.622 -0.362,-0.411 -0.811,-0.752 -1.336,-1.03 z" id="path841" style="stroke-width:0.00685035"/>
      <path fill="#222d65" d="m 21.753989,7.151 c -0.189,-0.055 -0.384,-0.105 -0.584,-0.15 -0.201,-0.044 -0.407,-0.083 -0.619,-0.117 -0.742,-0.12 -1.555,-0.177 -2.426,-0.177 h -7.352 c -0.181,0 -0.353,0.041 -0.507,0.115 C 9.9269888,6.985 9.6749888,7.306 9.6139888,7.699 l -1.564,9.906 -0.045,0.289 c 0.103,-0.652 0.66,-1.132 1.321,-1.132 h 2.7520002 c 5.405,0 9.637,-2.195 10.874,-8.545 0.037,-0.188 0.068,-0.371 0.096,-0.55 -0.313,-0.166 -0.652,-0.308 -1.017,-0.429 -0.09,-0.03 -0.183,-0.059 -0.277,-0.087 z" id="path843" style="stroke-width:0.00685035"/>
      <path fill="#253b80" d="m 9.6139888,7.699 c 0.061,-0.393 0.313,-0.714 0.6520002,-0.876 0.155,-0.074 0.326,-0.115 0.507,-0.115 h 7.352 c 0.871,0 1.684,0.057 2.426,0.177 0.212,0.034 0.418,0.073 0.619,0.117 0.2,0.045 0.395,0.095 0.584,0.15 0.094,0.028 0.187,0.057 0.278,0.086 0.365,0.121 0.704,0.264 1.017,0.429 0.368,-2.347 -0.003,-3.945 -1.272,-5.392 C 20.377989,0.682 17.852989,0 14.621989,0 H 5.2419888 c -0.66,0 -1.223,0.48 -1.325,1.133 L 0.00998882,25.898 c -0.077,0.49 0.301,0.932 0.795,0.932 H 6.5959888 l 1.454,-9.225 z" id="path845" style="stroke-width:0.00685035"/>
    </g>
    <g id="g870" transform="matrix(6.353505,0,0,6.353505,-210.02003,376.21997)" style="stroke-width:0.157393">
      <path fill="#253b80" d="m 46.211,6.749 h -6.839 c -0.468,0 -0.866,0.34 -0.939,0.802 l -2.766,17.537 c -0.055,0.346 0.213,0.658 0.564,0.658 h 3.265 c 0.468,0 0.866,-0.34 0.939,-0.803 l 0.746,-4.73 c 0.072,-0.463 0.471,-0.803 0.938,-0.803 h 2.165 c 4.505,0 7.105,-2.18 7.784,-6.5 C 52.374,11.02 52.081,9.535 51.196,8.495 50.224,7.353 48.5,6.749 46.211,6.749 Z M 47,13.154 c -0.374,2.454 -2.249,2.454 -4.062,2.454 h -1.032 l 0.724,-4.583 c 0.043,-0.277 0.283,-0.481 0.563,-0.481 h 0.473 c 1.235,0 2.4,0 3.002,0.704 0.359,0.42 0.469,1.044 0.332,1.906 z" id="path827" style="stroke-width:0.0259953"/>
      <path fill="#253b80" d="m 66.654,13.075 h -3.275 c -0.279,0 -0.52,0.204 -0.563,0.481 l -0.145,0.916 -0.229,-0.332 c -0.709,-1.029 -2.29,-1.373 -3.868,-1.373 -3.619,0 -6.71,2.741 -7.312,6.586 -0.313,1.918 0.132,3.752 1.22,5.031 0.998,1.176 2.426,1.666 4.125,1.666 2.916,0 4.533,-1.875 4.533,-1.875 l -0.146,0.91 c -0.055,0.348 0.213,0.66 0.562,0.66 h 2.95 c 0.469,0 0.865,-0.34 0.939,-0.803 l 1.77,-11.209 c 0.056,-0.345 -0.211,-0.658 -0.561,-0.658 z m -4.565,6.374 c -0.316,1.871 -1.801,3.127 -3.695,3.127 -0.951,0 -1.711,-0.305 -2.199,-0.883 -0.484,-0.574 -0.668,-1.391 -0.514,-2.301 0.295,-1.855 1.805,-3.152 3.67,-3.152 0.93,0 1.686,0.309 2.184,0.892 0.499,0.589 0.697,1.411 0.554,2.317 z" id="path829" style="stroke-width:0.0259953"/>
      <path fill="#253b80" d="m 84.096,13.075 h -3.291 c -0.314,0 -0.609,0.156 -0.787,0.417 l -4.539,6.686 -1.924,-6.425 c -0.121,-0.402 -0.492,-0.678 -0.912,-0.678 h -3.234 c -0.393,0 -0.666,0.384 -0.541,0.754 l 3.625,10.638 -3.408,4.811 c -0.268,0.379 0.002,0.9 0.465,0.9 h 3.287 c 0.312,0 0.604,-0.152 0.781,-0.408 l 10.946,-15.8 c 0.262,-0.378 -0.007,-0.895 -0.468,-0.895 z" id="path831" style="stroke-width:0.0259953"/>
      <path fill="#179bd7" d="m 94.992,6.749 h -6.84 c -0.467,0 -0.865,0.34 -0.938,0.802 l -2.766,17.537 c -0.055,0.346 0.213,0.658 0.562,0.658 h 3.51 c 0.326,0 0.605,-0.238 0.656,-0.562 l 0.785,-4.971 c 0.072,-0.463 0.471,-0.803 0.938,-0.803 h 2.164 c 4.506,0 7.105,-2.18 7.785,-6.5 0.307,-1.89 0.012,-3.375 -0.873,-4.415 C 99.004,7.353 97.281,6.749 94.992,6.749 Z m 0.789,6.405 c -0.373,2.454 -2.248,2.454 -4.062,2.454 h -1.031 l 0.725,-4.583 c 0.043,-0.277 0.281,-0.481 0.562,-0.481 h 0.473 c 1.234,0 2.4,0 3.002,0.704 0.359,0.42 0.468,1.044 0.331,1.906 z" id="path833" style="stroke-width:0.0259953"/>
      <path fill="#179bd7" d="m 115.434,13.075 h -3.273 c -0.281,0 -0.52,0.204 -0.562,0.481 l -0.145,0.916 -0.23,-0.332 c -0.709,-1.029 -2.289,-1.373 -3.867,-1.373 -3.619,0 -6.709,2.741 -7.311,6.586 -0.312,1.918 0.131,3.752 1.219,5.031 1,1.176 2.426,1.666 4.125,1.666 2.916,0 4.533,-1.875 4.533,-1.875 l -0.146,0.91 c -0.055,0.348 0.213,0.66 0.564,0.66 h 2.949 c 0.467,0 0.865,-0.34 0.938,-0.803 l 1.771,-11.209 c 0.054,-0.345 -0.214,-0.658 -0.565,-0.658 z m -4.565,6.374 c -0.314,1.871 -1.801,3.127 -3.695,3.127 -0.949,0 -1.711,-0.305 -2.199,-0.883 -0.484,-0.574 -0.666,-1.391 -0.514,-2.301 0.297,-1.855 1.805,-3.152 3.67,-3.152 0.93,0 1.686,0.309 2.184,0.892 0.501,0.589 0.699,1.411 0.554,2.317 z" id="path835" style="stroke-width:0.0259953"/>
      <path fill="#179bd7" d="m 119.295,7.23 -2.807,17.858 c -0.055,0.346 0.213,0.658 0.562,0.658 h 2.822 c 0.469,0 0.867,-0.34 0.939,-0.803 l 2.768,-17.536 c 0.055,-0.346 -0.213,-0.659 -0.562,-0.659 h -3.16 c -0.279,10e-4 -0.519,0.205 -0.562,0.482 z" id="path837" style="stroke-width:0.0259953"/>
    </g>
    <path style="fill:none;stroke:#253b80;stroke-width:5;stroke-linecap:round;stroke-linejoin:round;stroke-miterlimit:4;stroke-dasharray:none;stroke-opacity:1" d="m 580.93298,426.18291 h 14.35658" id="path1041"/>
    <path style="fill:none;stroke:#253b80;stroke-width:5;stroke-linecap:round;stroke-linejoin:round;stroke-miterlimit:4;stroke-dasharray:none;stroke-opacity:1" d="M 588.33496,444.15914 V 426.42693" id="path1043"/>
    <path style="fill:none;stroke:#253b80;stroke-width:5;stroke-linecap:round;stroke-linejoin:round;stroke-miterlimit:4;stroke-dasharray:none;stroke-opacity:1" d="m 600.49534,443.87444 v -17.44751 l 8.13404,17.24416 8.09337,-16.91879 v 17.12214" id="path1045"/>
  </g>
</svg>